HIERARCHY
ROOT Model
{
	OFFSET 0 0 0
	CHANNELS 6 Xposition Yposition Zposition Zrotation Xrotation Yrotation
	JOINT Model1
	{
		OFFSET 0 -2.25479 2.99384
		CHANNELS 3 Zrotation Xrotation Yrotation
		JOINT Model2
		{
			OFFSET 12.111 0 0
			CHANNELS 3 Zrotation Xrotation Yrotation
			JOINT Model3
			{
				OFFSET 11.5502 0 0
				CHANNELS 3 Zrotation Xrotation Yrotation
				JOINT Model4
				{
					OFFSET 11.781 0 0
					CHANNELS 3 Zrotation Xrotation Yrotation
					JOINT Model5
					{
						OFFSET 20.0601 0 0
						CHANNELS 3 Zrotation Xrotation Yrotation
						JOINT Model6
						{
							OFFSET 11.1962 0 0
							CHANNELS 3 Zrotation Xrotation Yrotation
							End Site
							{
								OFFSET 0 0 0
							}
						}
					}
					JOINT Model7
					{
						OFFSET 10.8223 0.417534 3.51114
						CHANNELS 3 Zrotation Xrotation Yrotation
						JOINT Model8
						{
							OFFSET -6.07944 0 0
							CHANNELS 3 Zrotation Xrotation Yrotation
							JOINT Model9
							{
								OFFSET -0.27742 10.39 -0.051239
								CHANNELS 3 Zrotation Xrotation Yrotation
								JOINT Model10
								{
									OFFSET -3.4391 -0.282043 1.86678
									CHANNELS 3 Zrotation Xrotation Yrotation
									JOINT Model11
									{
										OFFSET 13.0269 0 0
										CHANNELS 3 Zrotation Xrotation Yrotation
										JOINT Model12
										{
											OFFSET 10.8866 0 0
											CHANNELS 3 Zrotation Xrotation Yrotation
											JOINT Model13
											{
												OFFSET 16.7317 0 0
												CHANNELS 3 Zrotation Xrotation Yrotation
												JOINT Model14
												{
													OFFSET 11.8292 0 0
													CHANNELS 3 Zrotation Xrotation Yrotation
													JOINT Model15
													{
														OFFSET 4.82751 -3.73566 -0.836517
														CHANNELS 3 Zrotation Xrotation Yrotation
														JOINT Model16
														{
															OFFSET 3.75311 -0.0582886 -0.0186462
															CHANNELS 3 Zrotation Xrotation Yrotation
															JOINT Model17
															{
																OFFSET 2.88688 0.0192337 0.014801
																CHANNELS 3 Zrotation Xrotation Yrotation
																End Site
																{
																	OFFSET 0 0 0
																}
															}
														}
													}
													JOINT Model18
													{
														OFFSET 9.72197 -3.06458 0.23877
														CHANNELS 3 Zrotation Xrotation Yrotation
														JOINT Model19
														{
															OFFSET 4.61131 0 0
															CHANNELS 3 Zrotation Xrotation Yrotation
															JOINT Model20
															{
																OFFSET 2.8969 -7.62939e-006 0
																CHANNELS 3 Zrotation Xrotation Yrotation
																End Site
																{
																	OFFSET 0 0 0
																}
															}
														}
													}
													JOINT Model21
													{
														OFFSET 9.54431 -0.745064 0.588943
														CHANNELS 3 Zrotation Xrotation Yrotation
														JOINT Model22
														{
															OFFSET 5.33978 0 0
															CHANNELS 3 Zrotation Xrotation Yrotation
															JOINT Model23
															{
																OFFSET 3.03619 7.62939e-006 0
																CHANNELS 3 Zrotation Xrotation Yrotation
																End Site
																{
																	OFFSET 0 0 0
																}
															}
														}
													}
													JOINT Model24
													{
														OFFSET 9.47759 1.51286 0.485123
														CHANNELS 3 Zrotation Xrotation Yrotation
														JOINT Model25
														{
															OFFSET 4.96136 7.62939e-006 0
															CHANNELS 3 Zrotation Xrotation Yrotation
															JOINT Model26
															{
																OFFSET 2.51966 0 0
																CHANNELS 3 Zrotation Xrotation Yrotation
																End Site
																{
																	OFFSET 0 0 0
																}
															}
														}
													}
													JOINT Model27
													{
														OFFSET 9.34247 3.34117 -0.239273
														CHANNELS 3 Zrotation Xrotation Yrotation
														JOINT Model28
														{
															OFFSET 3.2826 2.28882e-005 0
															CHANNELS 3 Zrotation Xrotation Yrotation
															JOINT Model29
															{
																OFFSET 2.1292 0 0
																CHANNELS 3 Zrotation Xrotation Yrotation
																End Site
																{
																	OFFSET 0 0 0
																}
															}
														}
													}
												}
											}
										}
									}
								}
							}
						}
					}
					JOINT Model30
					{
						OFFSET 10.8223 0.4179 -3.51106
						CHANNELS 3 Zrotation Xrotation Yrotation
						JOINT Model31
						{
							OFFSET 6.07944 0 0
							CHANNELS 3 Zrotation Xrotation Yrotation
							JOINT Model32
							{
								OFFSET 0.27742 -10.39 0.051239
								CHANNELS 3 Zrotation Xrotation Yrotation
								JOINT Model33
								{
									OFFSET 3.4391 0.282043 -1.86678
									CHANNELS 3 Zrotation Xrotation Yrotation
									JOINT Model34
									{
										OFFSET -13.0269 0 0
										CHANNELS 3 Zrotation Xrotation Yrotation
										JOINT Model35
										{
											OFFSET -10.8866 0 0
											CHANNELS 3 Zrotation Xrotation Yrotation
											JOINT Model36
											{
												OFFSET -16.7317 0 0
												CHANNELS 3 Zrotation Xrotation Yrotation
												JOINT Model37
												{
													OFFSET -11.8292 0 0
													CHANNELS 3 Zrotation Xrotation Yrotation
													JOINT Model38
													{
														OFFSET -4.82751 3.73566 0.836517
														CHANNELS 3 Zrotation Xrotation Yrotation
														JOINT Model39
														{
															OFFSET -3.75311 0.0582886 0.0186462
															CHANNELS 3 Zrotation Xrotation Yrotation
															JOINT Model40
															{
																OFFSET -2.88689 -0.0192337 -0.014801
																CHANNELS 3 Zrotation Xrotation Yrotation
																End Site
																{
																	OFFSET 0 0 0
																}
															}
														}
													}
													JOINT Model41
													{
														OFFSET -9.72197 3.06459 -0.23877
														CHANNELS 3 Zrotation Xrotation Yrotation
														JOINT Model42
														{
															OFFSET -4.6113 0 0
															CHANNELS 3 Zrotation Xrotation Yrotation
															JOINT Model43
															{
																OFFSET -2.8969 0 0
																CHANNELS 3 Zrotation Xrotation Yrotation
																End Site
																{
																	OFFSET 0 0 0
																}
															}
														}
													}
													JOINT Model44
													{
														OFFSET -9.5443 0.745064 -0.588943
														CHANNELS 3 Zrotation Xrotation Yrotation
														JOINT Model45
														{
															OFFSET -5.33978 0 0
															CHANNELS 3 Zrotation Xrotation Yrotation
															JOINT Model46
															{
																OFFSET -3.03619 -1.52588e-005 0
																CHANNELS 3 Zrotation Xrotation Yrotation
																End Site
																{
																	OFFSET 0 0 0
																}
															}
														}
													}
													JOINT Model47
													{
														OFFSET -9.47758 -1.51286 -0.485123
														CHANNELS 3 Zrotation Xrotation Yrotation
														JOINT Model48
														{
															OFFSET -4.96136 -1.52588e-005 0
															CHANNELS 3 Zrotation Xrotation Yrotation
															JOINT Model49
															{
																OFFSET -2.51965 0 0
																CHANNELS 3 Zrotation Xrotation Yrotation
																End Site
																{
																	OFFSET 0 0 0
																}
															}
														}
													}
													JOINT Model50
													{
														OFFSET -9.34245 -3.34118 0.239273
														CHANNELS 3 Zrotation Xrotation Yrotation
														JOINT Model51
														{
															OFFSET -3.28259 -2.28882e-005 0
															CHANNELS 3 Zrotation Xrotation Yrotation
															JOINT Model52
															{
																OFFSET -2.1292 0 0
																CHANNELS 3 Zrotation Xrotation Yrotation
																End Site
																{
																	OFFSET 0 0 0
																}
															}
														}
													}
												}
											}
										}
									}
								}
							}
						}
					}
				}
			}
		}
	}
	JOINT Model53
	{
		OFFSET 4.38026 -2.14632 -1.11516
		CHANNELS 3 Zrotation Xrotation Yrotation
		JOINT Model54
		{
			OFFSET 0 0 4.95
			CHANNELS 3 Zrotation Xrotation Yrotation
			JOINT Model55
			{
				OFFSET 18.5642 0 0
				CHANNELS 3 Zrotation Xrotation Yrotation
				JOINT Model56
				{
					OFFSET 21.2884 0 1.52588e-005
					CHANNELS 3 Zrotation Xrotation Yrotation
					JOINT Model57
					{
						OFFSET 30.261 0 0
						CHANNELS 3 Zrotation Xrotation Yrotation
						JOINT Model58
						{
							OFFSET 11.7259 0 0
							CHANNELS 3 Zrotation Xrotation Yrotation
							JOINT Model59
							{
								OFFSET 10.682 0 0
								CHANNELS 3 Zrotation Xrotation Yrotation
								End Site
								{
									OFFSET 0 0 0
								}
							}
						}
					}
				}
			}
		}
	}
	JOINT Model60
	{
		OFFSET -4.38026 -2.14632 -1.11516
		CHANNELS 3 Zrotation Xrotation Yrotation
		JOINT Model61
		{
			OFFSET 0 0 -4.95
			CHANNELS 3 Zrotation Xrotation Yrotation
			JOINT Model62
			{
				OFFSET -18.5642 0 0
				CHANNELS 3 Zrotation Xrotation Yrotation
				JOINT Model63
				{
					OFFSET -21.2884 0 -1.52588e-005
					CHANNELS 3 Zrotation Xrotation Yrotation
					JOINT Model64
					{
						OFFSET -30.261 0 0
						CHANNELS 3 Zrotation Xrotation Yrotation
						JOINT Model65
						{
							OFFSET -11.7259 0 0
							CHANNELS 3 Zrotation Xrotation Yrotation
							JOINT Model66
							{
								OFFSET -10.682 0 0
								CHANNELS 3 Zrotation Xrotation Yrotation
								End Site
								{
									OFFSET 0 0 0
								}
							}
						}
					}
				}
			}
		}
	}
}
MOTION
Frames: 4
Frame Time: 0.033333
-345.9 152.284 -198.975 81.0922 15.4276 91.3176 -180 4.29621e-031 -90 2.84433 -2.783 0.148249 5.70607 -5.55554 0.435495 5.70607 -5.5551 0.435451 23.1968 10.0661 -4.93575 -14.3243 9.02025 5.66615 120.092 75.5343 58.4939 25.1053 26.9727 -1.45541 -167.277 84.4999 48.8109 123.046 -18.2068 -29.3391 2.95774e-005 -17.8098 3.36123e-005 -88.2474 -11.934 0.622357 -1.97066e-006 -18.3506 -2.72486e-006 10.954 -2.71615 -27.7411 -72.0648 39.0385 39.3397 33.3638 2.10362 14.835 0.588947 0.308273 6.35287 -99.6409 81.413 100.35 -0.0181409 2.76876e-005 -0.117315 -0.124139 0.002411 -0.799296 -79.8382 79.5773 80.5374 -0.000225772 -0.000220999 2.2183e-005 -0.00095622 0.000122791 -2.73361e-005 -66.7416 80.4058 67.2171 -0.000437128 1.58582e-005 -2.73326e-005 -0.000136598 -0.000109409 -5.46575e-005 -6.42159 81.2158 8.01779 -0.000218574 1.66992e-005 0.00021213 0.000901574 -0.000185084 -0.00021858 -59.9282 75.5373 58.5147 -9.8998 5.82632 4.41133 -167.277 84.4999 48.8109 152.973 -2.61207 10.5388 -4.10796e-007 16.2109 2.86479e-005 -108.13 -3.01107 0.579404 -6.8384e-006 -4.6096 3.85894e-006 30.462 -3.75063 -13.7152 -72.0648 39.0385 39.3397 33.3638 2.10361 14.835 0.588946 0.308273 6.35287 -99.6409 81.413 100.35 -0.0181409 3.02268e-005 -0.117315 -0.124139 0.00241134 -0.799296 -79.8382 79.5773 80.5374 -0.000260654 -0.000218446 2.35919e-005 -0.000956237 0.000123159 -2.72917e-005 -66.7416 80.4058 67.2171 -0.000437138 1.50253e-005 -2.72974e-005 -0.000136612 -0.000109089 -5.461e-005 -6.42159 81.2158 8.01779 -0.000218551 1.9773e-005 0.000212305 0.000901604 -0.000190983 -0.000218555 0.000811311 0.56661 89.91 -14.7774 -0.287998 -14.3372 4.15246e-006 8.79802 -3.77846e-007 71.9435 -10.2838 -0.00787968 -3.51518e-007 -15.5419 -3.34433e-007 -36.5407 -18.5086 18.059 -54.5455 -36.8815 -8.726 -180 -0.566579 -90.09 -57.2936 5.6654 -2.56364 8.00194e-007 8.72416 -4.36102e-009 81.1426 -7.4949 -0.00798325 1.44469e-007 -11.3639 -5.13078e-007 -78.447 -13.9236 4.68803 -35.4947 -4.50247e-006 -1.14286e-006 
-344.451 154.005 -198.874 79.7519 11.5385 90.9742 -180 4.29621e-031 -90 3.26953 -2.16166 0.190009 6.5533 -4.30932 0.503519 6.5533 -4.30888 0.503469 29.8557 9.81908 -9.87821 -21.2769 8.52939 7.55859 120.092 75.5343 58.4939 26.374 25.2973 -2.0717 -167.277 84.4999 48.8109 129.27 -20.18 -30.8972 2.96589e-005 -17.9419 3.36373e-005 -91.0032 -11.8526 0.622044 -1.96249e-006 -18.1873 -2.72229e-006 11.4369 -2.90446 -28.3881 -72.0648 39.0385 39.3397 33.3638 2.10362 14.835 0.588947 0.308273 6.35287 -99.6409 81.413 100.35 -0.0181409 2.76876e-005 -0.117315 -0.124139 0.002411 -0.799296 -79.8382 79.5773 80.5374 -0.000225772 -0.000220999 2.2183e-005 -0.00095622 0.000122791 -2.73361e-005 -66.7416 80.4058 67.2171 -0.000437128 1.58582e-005 -2.73326e-005 -0.000136598 -0.000109409 -5.46575e-005 -6.42159 81.2158 8.01779 -0.000218574 1.66992e-005 0.00021213 0.000901574 -0.000185084 -0.00021858 -59.9282 75.5373 58.5147 -2.12467 12.7036 4.79661 -167.277 84.4999 48.8109 152.631 -4.97852 7.69662 1.32723e-006 12.8195 2.82121e-005 -105.437 -5.77124 0.589911 -6.55264e-006 -8.80618 3.89234e-006 30.6087 -5.01765 -18.1985 -72.0648 39.0385 39.3397 33.3638 2.10361 14.835 0.588946 0.308273 6.35287 -99.6409 81.413 100.35 -0.0181409 3.02268e-005 -0.117315 -0.124139 0.00241134 -0.799296 -79.8382 79.5773 80.5374 -0.000260654 -0.000218446 2.35919e-005 -0.000956237 0.000123159 -2.72917e-005 -66.7416 80.4058 67.2171 -0.000437138 1.50253e-005 -2.72974e-005 -0.000136612 -0.000109089 -5.461e-005 -6.42159 81.2158 8.01779 -0.000218551 1.9773e-005 0.000212305 0.000901604 -0.000190983 -0.000218555 0.000811311 0.56661 89.91 -30.1829 2.90747 -11.914 4.15602e-006 9.33121 -3.78407e-007 87.2589 -5.52534 -0.00820788 -3.09548e-007 -8.41035 -3.25707e-007 -24.5414 -15.0865 18.992 -40.6316 -20.2824 -2.35897 -180 -0.566579 -90.09 -57.0369 4.61768 -3.73084 8.00078e-007 7.21579 -4.34498e-009 78.1429 -5.46319 -0.00789241 1.72048e-007 -8.31509 -5.08363e-007 -81.8401 -11.1461 3.01282 -35.4947 -4.40299e-006 -1.16408e-006 
-343.059 156.3 -199.066 77.3438 6.76757 89.9159 -180 4.29621e-031 -90 3.70373 -1.37682 0.0778105 7.41249 -2.74618 0.244377 7.41249 -2.74575 0.244321 39.1673 8.28462 -13.5772 -30.311 7.59841 8.02164 120.092 75.5343 58.4939 25.8754 23.3477 -2.04402 -167.277 84.4999 48.8109 138.878 -21.924 -30.6328 2.82868e-005 -15.6913 3.32403e-005 -93.3732 -11.1799 0.619731 -1.91048e-006 -17.1413 -2.70651e-006 12.7202 -3.21673 -28.2898 -72.0648 39.0385 39.3397 33.3638 2.10362 14.835 0.588947 0.308273 6.35287 -99.6409 81.413 100.35 -0.0181409 2.76876e-005 -0.117315 -0.124139 0.002411 -0.799296 -79.8382 79.5773 80.5374 -0.000225772 -0.000220999 2.2183e-005 -0.00095622 0.000122791 -2.73361e-005 -66.7416 80.4058 67.2171 -0.000437128 1.58582e-005 -2.73326e-005 -0.000136598 -0.000109409 -5.46575e-005 -6.42159 81.2158 8.01779 -0.000218574 1.66992e-005 0.00021213 0.000901574 -0.000185084 -0.00021858 -59.9282 75.5373 58.5147 8.5556 20.3301 3.48111 -167.277 84.4999 48.8109 155.834 -7.64185 4.09389 3.10214e-006 9.25956 2.7872e-005 -105.092 -7.8494 0.593473 -6.33583e-006 -11.9303 3.93138e-006 30.4555 -6.05436 -21.9802 -72.0648 39.0385 39.3397 33.3638 2.10361 14.835 0.588946 0.308273 6.35287 -99.6409 81.413 100.35 -0.0181409 3.02268e-005 -0.117315 -0.124139 0.00241134 -0.799296 -79.8382 79.5773 80.5374 -0.000260654 -0.000218446 2.35919e-005 -0.000956237 0.000123159 -2.72917e-005 -66.7416 80.4058 67.2171 -0.000437138 1.50253e-005 -2.72974e-005 -0.000136612 -0.000109089 -5.461e-005 -6.42159 81.2158 8.01779 -0.000218551 1.9773e-005 0.000212305 0.000901604 -0.000190983 -0.000218555 0.000811311 0.56661 89.91 -49.7026 4.68072 -9.64788 4.15058e-006 8.5164 -3.77563e-007 101.504 -0.764634 -0.0080545 -2.69032e-007 -1.26643 -3.22283e-007 -26.8129 -15.9164 19.0155 -34.9156 2.45015 0.300163 -180 -0.566579 -90.09 -57.0898 3.82972 -5.48534 7.99994e-007 6.11016 -4.33519e-009 73.9559 -3.50632 -0.00770165 1.98216e-007 -5.37744 -5.05243e-007 -84.3199 -9.35724 1.9879 -35.4947 -4.26297e-006 -1.16904e-006 
-341.739 158.847 -199.641 73.9723 1.18488 87.6926 -180 4.29621e-031 -90 4.08371 -0.597549 -0.266289 8.165 -1.21302 -0.489433 8.165 -1.21259 -0.489495 49.3466 6.06435 -15.6699 -40.3005 6.79581 7.16338 120.092 75.5343 58.4939 23.6749 21.6968 -1.42559 -167.277 84.4999 48.8109 151.012 -23.219 -30.7373 2.59091e-005 -11.6744 3.26775e-005 -93.5151 -11.5677 0.62048 -1.93922e-006 -17.7208 -2.71512e-006 13.7025 -3.23289 -26.4441 -72.0648 39.0385 39.3397 33.3638 2.10362 14.835 0.588947 0.308273 6.35287 -99.6409 81.413 100.35 -0.0181409 2.76876e-005 -0.117315 -0.124139 0.002411 -0.799296 -79.8382 79.5773 80.5374 -0.000225772 -0.000220999 2.2183e-005 -0.00095622 0.000122791 -2.73361e-005 -66.7416 80.4058 67.2171 -0.000437128 1.58582e-005 -2.73326e-005 -0.000136598 -0.000109409 -5.46575e-005 -6.42159 81.2158 8.01779 -0.000218574 1.66992e-005 0.00021213 0.000901574 -0.000185084 -0.00021858 -59.9282 75.5373 58.5147 20.5919 26.8901 0.266314 -167.277 84.4999 48.8109 162.963 -10.7106 1.01565 4.83238e-006 5.71821 2.76464e-005 -107.942 -7.84483 0.584549 -6.34051e-006 -11.8636 3.93042e-006 31.4625 -6.59243 -23.106 -72.0648 39.0385 39.3397 33.3638 2.10361 14.835 0.588946 0.308273 6.35287 -99.6409 81.413 100.35 -0.0181409 3.02268e-005 -0.117315 -0.124139 0.00241134 -0.799296 -79.8382 79.5773 80.5374 -0.000260654 -0.000218446 2.35919e-005 -0.000956237 0.000123159 -2.72917e-005 -66.7416 80.4058 67.2171 -0.000437138 1.50253e-005 -2.72974e-005 -0.000136612 -0.000109089 -5.461e-005 -6.42159 81.2158 8.01779 -0.000218551 1.9773e-005 0.000212305 0.000901604 -0.000190983 -0.000218555 0.000811311 0.56661 89.91 -71.7108 5.52798 -7.79282 4.14242e-006 7.28756 -3.76441e-007 112.096 1.51953 -0.007632 -2.49717e-007 2.16707 -3.22435e-007 -33.7926 -17.2262 17.8771 -35.4947 -1.23249e-006 2.62232e-007 -180 -0.566579 -90.09 -57.9205 3.76691 -7.00687 7.99986e-007 6.01362 -4.33442e-009 69.1214 -2.3369 -0.00744665 2.13744e-007 -3.61975 -5.04024e-007 -85.3374 -8.91298 1.70845 -35.4947 -4.08017e-006 -1.15623e-006 
